<?xml version="1.0" encoding="UTF-8"?>
<!DOCTYPE svg PUBLIC "-//W3C//DTD SVG 1.1//EN" "http://www.w3.org/Graphics/SVG/1.1/DTD/svg11.dtd">
<svg xmlns="http://www.w3.org/2000/svg" version="1.1" width="595px" height="533px" style="shape-rendering:geometricPrecision; text-rendering:geometricPrecision; image-rendering:optimizeQuality; fill-rule:evenodd; clip-rule:evenodd" xmlns:xlink="http://www.w3.org/1999/xlink">
<g><path style="opacity:0.192" fill="#5a5a5a" d="M 219.5,-0.5 C 220.5,-0.5 221.5,-0.5 222.5,-0.5C 222.5,-0.166667 222.5,0.166667 222.5,0.5C 221.508,0.32842 220.842,0.661754 220.5,1.5C 219.662,1.15829 219.328,0.491622 219.5,-0.5 Z"/></g>
<g><path style="opacity:0.945" fill="#1a191a" d="M 220.5,1.5 C 220.842,0.661754 221.508,0.32842 222.5,0.5C 229.472,2.98929 236.139,5.98929 242.5,9.5C 240.821,9.28519 239.821,9.95186 239.5,11.5C 233.325,7.91182 226.991,4.57849 220.5,1.5 Z"/></g>
<g><path style="opacity:1" fill="#010101" d="M 506.5,157.5 C 509.123,159.265 512.123,159.932 515.5,159.5C 516.5,159.5 517.5,159.5 518.5,159.5C 520.78,161.223 523.447,161.889 526.5,161.5C 531.296,161.866 535.963,162.866 540.5,164.5C 546.545,161.225 552.879,160.559 559.5,162.5C 568.511,162.459 577.178,160.792 585.5,157.5C 589.333,157.911 592.333,159.578 594.5,162.5C 594.5,163.167 594.5,163.833 594.5,164.5C 591.367,181.936 584.033,197.436 572.5,211C 573.702,216.121 573.702,221.288 572.5,226.5C 570.837,228.438 570.171,230.772 570.5,233.5C 567.027,247.1 561.527,259.766 554,271.5C 548.775,272.22 543.608,273.386 538.5,275C 533.055,283.445 527.221,291.612 521,299.5C 518.234,302.777 515.067,305.443 511.5,307.5C 510.167,307.5 509.5,306.833 509.5,305.5C 510.827,302.529 512.16,299.529 513.5,296.5C 511.588,289.713 510.922,282.713 511.5,275.5C 506.324,276.025 501.157,276.692 496,277.5C 490.016,276.407 484.016,275.407 478,274.5C 477.167,274.833 476.333,275.167 475.5,275.5C 469.827,284.847 463.661,293.847 457,302.5C 452.921,305.579 448.588,308.246 444,310.5C 443.5,310.167 443,309.833 442.5,309.5C 444.051,307.116 445.385,304.616 446.5,302C 446.265,301.127 445.931,300.293 445.5,299.5C 446.572,297.283 447.239,294.95 447.5,292.5C 445.391,286.076 444.391,279.409 444.5,272.5C 437.548,271.197 430.548,270.03 423.5,269C 412.539,264.766 401.373,261.266 390,258.5C 376.18,273.304 364.346,289.471 354.5,307C 354.585,308.107 354.919,309.107 355.5,310C 369.265,315.714 382.265,322.714 394.5,331C 396.667,333.167 398.833,335.333 401,337.5C 406.95,349.449 415.116,359.616 425.5,368C 430.268,367.283 434.102,364.783 437,360.5C 440.726,355.772 444.059,350.772 447,345.5C 447.77,344.402 448.603,344.402 449.5,345.5C 450.434,346.568 450.768,347.901 450.5,349.5C 449.067,357.963 449.567,366.296 452,374.5C 453.8,376.317 455.966,377.484 458.5,378C 464.98,379.259 471.48,380.426 478,381.5C 483.759,381.25 488.759,379.25 493,375.5C 496.848,366.474 500.682,357.474 504.5,348.5C 505.391,347.89 506.391,347.557 507.5,347.5C 509.293,349.426 510.293,351.759 510.5,354.5C 510.443,360.851 510.11,367.185 509.5,373.5C 508.268,382.2 509.934,390.2 514.5,397.5C 514.243,399.692 513.243,401.359 511.5,402.5C 509.096,406.004 507.43,410.004 506.5,414.5C 504.175,419.647 500.175,422.813 494.5,424C 486.598,424.089 478.764,423.256 471,421.5C 467.584,421.75 464.251,422.416 461,423.5C 458.837,422.359 456.504,421.693 454,421.5C 447.357,423.073 440.857,425.073 434.5,427.5C 432.423,427.308 430.423,426.808 428.5,426C 419.302,418.482 409.302,412.148 398.5,407C 394.372,404.884 390.039,403.884 385.5,404C 384.234,407.509 384.401,411.009 386,414.5C 391.547,424.707 397.88,434.374 405,443.5C 405.528,444.816 405.028,445.483 403.5,445.5C 401.576,445.711 401.243,446.377 402.5,447.5C 403.508,449.339 405.008,450.672 407,451.5C 407.432,452.6 406.932,453.267 405.5,453.5C 395.763,449.603 387.929,443.27 382,434.5C 378.532,429.066 374.699,423.899 370.5,419C 366.938,418.261 363.772,416.761 361,414.5C 362.308,429.613 368.808,442.113 380.5,452C 389.797,459.629 398.797,467.629 407.5,476C 405.833,476.667 404.167,476.667 402.5,476C 398.065,474.161 393.732,472.494 389.5,471C 398.181,478.019 406.514,485.352 414.5,493C 419.276,495.979 424.276,498.479 429.5,500.5C 431.364,502.218 433.697,503.385 436.5,504C 437.252,504.671 437.586,505.504 437.5,506.5C 436.903,507.139 436.07,507.472 435,507.5C 429.743,506.655 424.576,505.822 419.5,505C 430.231,513.533 442.231,519.7 455.5,523.5C 454.91,524.799 453.91,525.632 452.5,526C 446.072,526.75 440.072,525.417 434.5,522C 422.935,521.235 412.102,518.068 402,512.5C 400.77,513.275 400.437,514.275 401,515.5C 404.875,516.854 408.375,518.854 411.5,521.5C 410.975,522.192 410.308,522.692 409.5,523C 404.787,522.993 400.12,522.327 395.5,521C 391,517.572 386,516.238 380.5,517C 378.177,519.743 375.511,519.91 372.5,517.5C 369.467,518.482 367.8,520.482 367.5,523.5C 376.638,525.368 385.638,527.701 394.5,530.5C 392.052,531.473 389.385,531.806 386.5,531.5C 385.833,531.5 385.167,531.5 384.5,531.5C 382.162,529.96 379.495,529.294 376.5,529.5C 367.53,528.45 358.53,527.617 349.5,527C 327.923,521.141 306.59,514.474 285.5,507C 277.043,503.524 269.376,498.858 262.5,493C 252.599,483.769 243.433,473.936 235,463.5C 231.938,458.047 229.438,452.38 227.5,446.5C 227.145,441.45 225.812,436.783 223.5,432.5C 218.523,403.356 223.357,376.023 238,350.5C 238.667,349.5 238.667,348.5 238,347.5C 203.739,370.379 166.906,388.046 127.5,400.5C 121.545,401.651 115.712,403.317 110,405.5C 108.97,405.836 108.47,406.503 108.5,407.5C 95.0392,411.948 81.3726,415.615 67.5,418.5C 65.4727,418.662 63.4727,418.495 61.5,418C 62.056,417.617 62.3893,417.117 62.5,416.5C 71.6499,413.088 80.6499,409.421 89.5,405.5C 90.5,405.5 91.5,405.5 92.5,405.5C 92.5,404.5 92.5,403.5 92.5,402.5C 91.1266,402.657 89.7932,402.49 88.5,402C 89.056,401.617 89.3893,401.117 89.5,400.5C 93.8959,398.634 98.2292,396.467 102.5,394C 100.167,393.333 97.8333,393.333 95.5,394C 91.456,395.943 87.2893,397.443 83,398.5C 81.9887,397.663 80.8221,397.33 79.5,397.5C 75.6807,397.883 72.014,398.883 68.5,400.5C 67.537,400.03 67.537,399.363 68.5,398.5C 75.4098,395.383 82.4098,392.216 89.5,389C 88.2068,388.51 86.8734,388.343 85.5,388.5C 83.3023,388.591 82.9689,387.925 84.5,386.5C 87.2823,385.067 90.2823,383.9 93.5,383C 92.1667,382.333 90.8333,382.333 89.5,383C 72.9361,388.41 56.6028,394.41 40.5,401C 31.2924,404.348 21.9591,407.181 12.5,409.5C 10.0065,409.869 9.33985,409.203 10.5,407.5C 18.4037,404.539 26.0704,401.205 33.5,397.5C 34.8333,397.167 34.8333,396.833 33.5,396.5C 32.5084,396.672 31.8417,396.338 31.5,395.5C 39.5726,391.817 47.5726,388.151 55.5,384.5C 56.8333,384.167 56.8333,383.833 55.5,383.5C 52.8478,383.41 50.5145,384.076 48.5,385.5C 45.8877,386.371 43.221,387.037 40.5,387.5C 39.5084,387.672 38.8417,387.338 38.5,386.5C 48.4926,381.059 58.826,376.392 69.5,372.5C 70.7514,371.528 70.418,370.861 68.5,370.5C 67.5836,370.543 66.9169,370.876 66.5,371.5C 60.8793,373.346 55.2126,374.013 49.5,373.5C 57.4705,368.177 65.8038,363.343 74.5,359C 100.333,347.417 125,333.75 148.5,318C 154.458,313.711 160.124,309.044 165.5,304C 167.392,303.027 169.392,302.36 171.5,302C 200.018,278.571 228.352,254.905 256.5,231C 255.833,230.333 255.167,230.333 254.5,231C 228.846,249.161 202.846,266.828 176.5,284C 138.353,305.995 100.353,328.161 62.5,350.5C 60.9519,350.179 60.2852,349.179 60.5,347.5C 61.463,346.637 61.463,345.97 60.5,345.5C 58.9246,346.456 57.258,347.123 55.5,347.5C 54.1266,347.657 52.7932,347.49 51.5,347C 52.056,346.617 52.3893,346.117 52.5,345.5C 53.5,344.167 54.5,342.833 55.5,341.5C 54.8902,340.609 54.5569,339.609 54.5,338.5C 56.3173,337.781 56.9839,336.781 56.5,335.5C 52.6358,337.594 48.9692,339.928 45.5,342.5C 44.448,342.649 43.448,342.483 42.5,342C 44.0414,340.629 45.3747,339.129 46.5,337.5C 47.9599,335.537 49.6266,333.704 51.5,332C 51.273,330.865 50.9396,329.698 50.5,328.5C 43.3082,334.917 35.6416,340.584 27.5,345.5C 28.7536,342.907 30.4202,340.573 32.5,338.5C 35.2956,335.203 38.2956,332.036 41.5,329C 40.9056,328.536 40.2389,328.369 39.5,328.5C 38.8333,328.5 38.5,328.167 38.5,327.5C 42.847,323.155 47.5137,319.155 52.5,315.5C 57.4397,312.23 61.7731,308.23 65.5,303.5C 88.0866,278.081 109.753,251.915 130.5,225C 129.833,224.333 129.167,224.333 128.5,225C 125.534,229.492 121.534,231.158 116.5,230C 113.112,232.786 110.446,236.119 108.5,240C 104.702,240.96 101.035,242.294 97.5,244C 89.1067,251.611 79.94,258.111 70,263.5C 68.9412,263.37 68.1079,262.87 67.5,262C 69.3702,259.96 71.3702,258.127 73.5,256.5C 76.0795,253.578 78.7461,250.578 81.5,247.5C 84.1288,244.369 86.9621,241.369 90,238.5C 90.6667,237.833 90.6667,237.167 90,236.5C 82.6816,244.495 73.8483,249.995 63.5,253C 61.1082,257.037 57.7749,258.537 53.5,257.5C 53.6236,256.893 53.9569,256.56 54.5,256.5C 58.1002,254.57 61.1002,251.903 63.5,248.5C 73.543,238.123 84.2096,228.456 95.5,219.5C 98.7642,217.906 101.431,215.573 103.5,212.5C 109.625,205.205 115.958,198.038 122.5,191C 118.619,191.427 114.953,192.76 111.5,195C 105.424,199.79 98.9243,203.957 92,207.5C 91.8333,207 91.6667,206.5 91.5,206C 100.031,194.445 108.198,182.611 116,170.5C 117.02,166.29 116.02,162.623 113,159.5C 110.848,152.226 109.015,144.892 107.5,137.5C 107.232,134.26 106.566,131.094 105.5,128C 105.164,126.97 104.497,126.47 103.5,126.5C 100.421,116.933 97.7548,107.266 95.5,97.5C 95.6641,94.8127 95.4974,92.146 95,89.5C 94.7216,88.5842 94.2216,87.9175 93.5,87.5C 92.2647,79.1465 92.2647,70.8132 93.5,62.5C 92.2391,59.248 90.5725,56.248 88.5,53.5C 89.4475,52.0221 90.7809,51.0221 92.5,50.5C 92.2447,47.9837 91.4114,45.6504 90,43.5C 86.5046,40.8377 83.3379,37.8377 80.5,34.5C 84.9273,34.2848 88.7606,35.9515 92,39.5C 92.9533,36.5682 93.4533,33.5682 93.5,30.5C 93.9016,27.5234 94.9016,24.8567 96.5,22.5C 97.7581,28.2048 99.2581,33.8715 101,39.5C 101.333,37.1667 101.667,34.8333 102,32.5C 102.423,31.0439 103.256,30.5439 104.5,31C 106.853,34.405 108.02,38.2383 108,42.5C 109.167,43.6667 110.333,44.8333 111.5,46C 127.999,51.9174 143.999,58.9174 159.5,67C 172.911,71.8035 186.244,76.8035 199.5,82C 207.028,86.2638 214.028,91.2638 220.5,97C 224.211,97.4389 227.878,97.1056 231.5,96C 238.761,93.4687 246.094,91.1354 253.5,89C 257.833,88.6667 262.167,88.3333 266.5,88C 268.161,86.2959 268.495,84.1292 267.5,81.5C 267.361,79.1175 268.028,77.1175 269.5,75.5C 270.117,75.3893 270.617,75.056 271,74.5C 271.498,71.5184 271.665,68.5184 271.5,65.5C 271.822,63.2776 271.155,61.4443 269.5,60C 265.637,58.4423 261.97,56.6089 258.5,54.5C 258.285,52.8212 258.952,51.8212 260.5,51.5C 261.552,51.6495 262.552,51.4828 263.5,51C 262.177,50.1841 261.511,49.0174 261.5,47.5C 262.978,47.762 264.311,47.4287 265.5,46.5C 265.376,45.8933 265.043,45.56 264.5,45.5C 258.079,42.6348 252.412,38.8014 247.5,34C 248.272,32.779 249.272,31.779 250.5,31C 246.205,28.5271 246.538,27.0271 251.5,26.5C 256.574,28.1393 261.574,29.6393 266.5,31C 257.877,23.8622 248.877,17.3622 239.5,11.5C 239.821,9.95186 240.821,9.28519 242.5,9.5C 248.671,11.8357 254.505,14.8357 260,18.5C 260.465,17.0692 261.299,15.9025 262.5,15C 259.167,12.3333 255.833,9.66667 252.5,7C 253.833,6.33333 255.167,6.33333 256.5,7C 281.803,17.3097 304.47,31.643 324.5,50C 332.5,59.3333 341.167,68 350.5,76C 363.989,86.2444 377.656,96.2444 391.5,106C 395.048,107.941 398.714,109.607 402.5,111C 419.775,115.901 436.775,121.567 453.5,128C 456.138,130.778 458.138,133.944 459.5,137.5C 457.745,143.03 456.745,148.696 456.5,154.5C 473.224,153.92 489.891,154.92 506.5,157.5 Z M 347.5,149.5 C 351.881,149.372 356.215,149.705 360.5,150.5C 368.338,153.156 375.005,157.656 380.5,164C 367.695,165.879 355.695,170.046 344.5,176.5C 334.841,169 324.508,162.5 313.5,157C 324.567,153.233 335.9,150.733 347.5,149.5 Z M 515.5,290.5 C 515.215,288.712 515.548,287.045 516.5,285.5C 517.634,287.439 517.3,289.105 515.5,290.5 Z"/></g>
<g><path style="opacity:0.192" fill="#4e4e4e" d="M 96.5,22.5 C 94.9016,24.8567 93.9016,27.5234 93.5,30.5C 93.0949,26.9521 93.5949,23.6188 95,20.5C 95.7172,21.0442 96.2172,21.7109 96.5,22.5 Z"/></g>
<g><path style="opacity:0.192" fill="#454445" d="M 264.5,45.5 C 265.043,45.56 265.376,45.8933 265.5,46.5C 264.311,47.4287 262.978,47.762 261.5,47.5C 262.5,46.8333 263.5,46.1667 264.5,45.5 Z"/></g>
<g><path style="opacity:0.945" fill="#1f1f1f" d="M 92.5,50.5 C 90.7809,51.0221 89.4475,52.0221 88.5,53.5C 85.6855,52.0992 84.3521,50.0992 84.5,47.5C 86.9793,49.0761 89.646,50.0761 92.5,50.5 Z"/></g>
<g><path style="opacity:0.945" fill="#2f2e2e" d="M 260.5,51.5 C 258.952,51.8212 258.285,52.8212 258.5,54.5C 254.436,52.6078 254.602,51.2745 259,50.5C 259.765,50.5699 260.265,50.9033 260.5,51.5 Z"/></g>
<g><path style="opacity:0.945" fill="#262525" d="M 271.5,65.5 C 271.665,68.5184 271.498,71.5184 271,74.5C 270.617,75.056 270.117,75.3893 269.5,75.5C 270.01,72.0172 270.677,68.6838 271.5,65.5 Z"/></g>
<g><path style="opacity:0.945" fill="#282828" d="M 93.5,87.5 C 94.2216,87.9175 94.7216,88.5842 95,89.5C 95.4974,92.146 95.6641,94.8127 95.5,97.5C 94.5661,94.3443 93.8994,91.0109 93.5,87.5 Z"/></g>
<g><path style="opacity:0.945" fill="#201f1f" d="M 103.5,126.5 C 104.497,126.47 105.164,126.97 105.5,128C 106.566,131.094 107.232,134.26 107.5,137.5C 106.025,133.969 104.692,130.302 103.5,126.5 Z"/></g>
<g><path style="opacity:0.945" fill="#282727" d="M 347.5,149.5 C 349.134,148.839 350.967,148.506 353,148.5C 355.866,148.3 358.366,148.967 360.5,150.5C 356.215,149.705 351.881,149.372 347.5,149.5 Z"/></g>
<g><path style="opacity:0.678" fill="#2c2b2b" d="M 506.5,157.5 C 509.689,157.858 512.689,158.525 515.5,159.5C 512.123,159.932 509.123,159.265 506.5,157.5 Z"/></g>
<g><path style="opacity:0.945" fill="#292828" d="M 518.5,159.5 C 521.373,159.802 524.039,160.469 526.5,161.5C 523.447,161.889 520.78,161.223 518.5,159.5 Z"/></g>
<g><path style="opacity:0.918" fill="#252525" d="M 103.5,212.5 C 101.431,215.573 98.7642,217.906 95.5,219.5C 97.5691,216.427 100.236,214.094 103.5,212.5 Z"/></g>
<g><path style="opacity:0.918" fill="#2e2d2e" d="M 572.5,226.5 C 572.279,229.067 571.612,231.401 570.5,233.5C 570.171,230.772 570.837,228.438 572.5,226.5 Z"/></g>
<g><path style="opacity:0.918" fill="#282828" d="M 63.5,248.5 C 61.1002,251.903 58.1002,254.57 54.5,256.5C 56.8998,253.097 59.8998,250.43 63.5,248.5 Z"/></g>
<g><path style="opacity:0.945" fill="#212020" d="M 81.5,247.5 C 78.7461,250.578 76.0795,253.578 73.5,256.5C 74.7644,252.237 77.4311,249.237 81.5,247.5 Z"/></g>
<g><path style="opacity:0.918" fill="#252525" d="M 65.5,303.5 C 61.7731,308.23 57.4397,312.23 52.5,315.5C 56.2269,310.77 60.5603,306.77 65.5,303.5 Z"/></g>
<g><path style="opacity:0.792" fill="#282728" d="M 509.5,305.5 C 509.5,306.833 510.167,307.5 511.5,307.5C 510.573,309.476 509.24,309.809 507.5,308.5C 507.942,307.261 508.609,306.261 509.5,305.5 Z"/></g>
<g><path style="opacity:0.541" fill="#414040" d="M 38.5,327.5 C 38.5,328.167 38.8333,328.5 39.5,328.5C 38.7494,329.573 37.7494,329.74 36.5,329C 37.0442,328.283 37.7109,327.783 38.5,327.5 Z"/></g>
<g><path style="opacity:0.29" fill="#4e4e4e" d="M 54.5,338.5 C 54.5569,339.609 54.8902,340.609 55.5,341.5C 53.4482,340.947 53.1148,339.947 54.5,338.5 Z"/></g>
<g><path style="opacity:0.945" fill="#262525" d="M 32.5,338.5 C 30.4202,340.573 28.7536,342.907 27.5,345.5C 25.3437,347.841 22.8437,349.841 20,351.5C 19.3333,350.833 19.3333,350.167 20,349.5C 23.7615,345.23 27.9281,341.563 32.5,338.5 Z"/></g>
<g><path style="opacity:0.945" fill="#1b1b1b" d="M 46.5,337.5 C 45.3747,339.129 44.0414,340.629 42.5,342C 43.448,342.483 44.448,342.649 45.5,342.5C 40.1606,347.161 34.4939,351.495 28.5,355.5C 28.1667,355.167 27.8333,354.833 27.5,354.5C 33.5496,348.447 39.8829,342.78 46.5,337.5 Z"/></g>
<g><path style="opacity:0.541" fill="#474747" d="M 449.5,345.5 C 449.56,344.957 449.893,344.624 450.5,344.5C 451.788,346.299 451.788,347.965 450.5,349.5C 450.768,347.901 450.434,346.568 449.5,345.5 Z"/></g>
<g><path style="opacity:0.945" fill="#333333" d="M 507.5,347.5 C 506.391,347.557 505.391,347.89 504.5,348.5C 504.987,345.285 505.987,344.952 507.5,347.5 Z"/></g>
<g><path style="opacity:0.945" fill="#252525" d="M 52.5,345.5 C 52.3893,346.117 52.056,346.617 51.5,347C 52.7932,347.49 54.1266,347.657 55.5,347.5C 53.0505,348.676 50.5505,349.676 48,350.5C 48.1772,347.814 49.6772,346.148 52.5,345.5 Z"/></g>
<g><path style="opacity:0.945" fill="#1c1b1c" d="M 60.5,347.5 C 60.2852,349.179 60.9519,350.179 62.5,350.5C 58.3068,353.855 53.8068,356.855 49,359.5C 48.5,359.167 48,358.833 47.5,358.5C 52.1712,355.156 56.5045,351.49 60.5,347.5 Z"/></g>
<g><path style="opacity:0.792" fill="#282728" d="M 510.5,354.5 C 511.854,360.899 511.521,367.232 509.5,373.5C 510.11,367.185 510.443,360.851 510.5,354.5 Z"/></g>
<g><path style="opacity:0.192" fill="#4e4d4d" d="M 66.5,371.5 C 66.9169,370.876 67.5836,370.543 68.5,370.5C 70.418,370.861 70.7514,371.528 69.5,372.5C 68.791,371.596 67.791,371.263 66.5,371.5 Z"/></g>
<g><path style="opacity:0.792" fill="#262526" d="M 55.5,383.5 C 55.5,383.833 55.5,384.167 55.5,384.5C 53.1944,384.993 50.861,385.326 48.5,385.5C 50.5145,384.076 52.8478,383.41 55.5,383.5 Z"/></g>
<g><path style="opacity:0.192" fill="#5a5a5a" d="M 38.5,386.5 C 38.8417,387.338 39.5084,387.672 40.5,387.5C 39.6136,388.776 38.6136,388.776 37.5,387.5C 37.6236,386.893 37.9569,386.56 38.5,386.5 Z"/></g>
<g><path style="opacity:0.945" fill="#363636" d="M 84.5,386.5 C 82.9689,387.925 83.3023,388.591 85.5,388.5C 84.1512,389.797 82.8179,389.63 81.5,388C 82.2438,386.961 83.2438,386.461 84.5,386.5 Z"/></g>
<g><path style="opacity:0.612" fill="#3c3b3b" d="M 31.5,395.5 C 31.8417,396.338 32.5084,396.672 33.5,396.5C 33.5,396.833 33.5,397.167 33.5,397.5C 32.325,397.719 31.325,397.386 30.5,396.5C 30.6236,395.893 30.9569,395.56 31.5,395.5 Z"/></g>
<g><path style="opacity:0.945" fill="#1e1e1e" d="M 79.5,397.5 C 73.635,400.716 67.3017,402.216 60.5,402C 63.0711,400.546 65.7378,399.38 68.5,398.5C 67.537,399.363 67.537,400.03 68.5,400.5C 72.014,398.883 75.6807,397.883 79.5,397.5 Z"/></g>
<g><path style="opacity:0.945" fill="#1a1a1a" d="M 89.5,400.5 C 89.3893,401.117 89.056,401.617 88.5,402C 89.7932,402.49 91.1266,402.657 92.5,402.5C 92.5,403.5 92.5,404.5 92.5,405.5C 91.5,405.5 90.5,405.5 89.5,405.5C 89.9175,404.778 90.5842,404.278 91.5,404C 91,403.833 90.5,403.667 90,403.5C 78.9623,405.024 78.7957,404.024 89.5,400.5 Z"/></g>
<g><path style="opacity:0.918" fill="#212020" d="M 127.5,400.5 C 121.314,403.009 114.98,405.342 108.5,407.5C 108.47,406.503 108.97,405.836 110,405.5C 115.712,403.317 121.545,401.651 127.5,400.5 Z"/></g>
<g><path style="opacity:0.945" fill="#1d1d1d" d="M 511.5,402.5 C 510.599,406.885 508.932,410.885 506.5,414.5C 507.43,410.004 509.096,406.004 511.5,402.5 Z"/></g>
<g><path style="opacity:0.945" fill="#282828" d="M 10.5,407.5 C 9.33985,409.203 10.0065,409.869 12.5,409.5C 8.80035,411.245 4.80035,412.245 0.5,412.5C 3.5154,410.326 6.84873,408.659 10.5,407.5 Z"/></g>
<g><path style="opacity:0.09" fill="#656665" d="M -0.5,412.5 C -0.166667,412.5 0.166667,412.5 0.5,412.5C 0.31468,413.17 -0.0186536,413.17 -0.5,412.5 Z"/></g>
<g><path style="opacity:0.945" fill="#282828" d="M 62.5,416.5 C 62.3893,417.117 62.056,417.617 61.5,418C 63.4727,418.495 65.4727,418.662 67.5,418.5C 65.1691,419.317 62.6691,419.984 60,420.5C 58.5663,418.342 59.3997,417.009 62.5,416.5 Z"/></g>
<g><path style="opacity:0.945" fill="#212121" d="M 223.5,432.5 C 225.812,436.783 227.145,441.45 227.5,446.5C 225.595,442.103 224.261,437.437 223.5,432.5 Z"/></g>
<g><path style="opacity:0.192" fill="#5b5b5b" d="M 403.5,445.5 C 403.167,446.167 402.833,446.833 402.5,447.5C 401.243,446.377 401.576,445.711 403.5,445.5 Z"/></g>
<g><path style="opacity:0.918" fill="#1d1c1c" d="M 429.5,500.5 C 433.356,500.838 436.689,502.338 439.5,505C 438.956,505.717 438.289,506.217 437.5,506.5C 437.586,505.504 437.252,504.671 436.5,504C 433.697,503.385 431.364,502.218 429.5,500.5 Z"/></g>
<g><path style="opacity:0.945" fill="#292828" d="M 376.5,529.5 C 379.495,529.294 382.162,529.96 384.5,531.5C 381.572,531.435 378.905,530.768 376.5,529.5 Z"/></g>
<g><path style="opacity:0.792" fill="#242323" d="M 394.5,530.5 C 396.403,530.796 398.07,531.463 399.5,532.5C 395.167,532.5 390.833,532.5 386.5,532.5C 386.5,532.167 386.5,531.833 386.5,531.5C 389.385,531.806 392.052,531.473 394.5,530.5 Z"/></g>
</svg>
