<svg width="100" height="99" viewBox="0 0 100 99" fill="none" xmlns="http://www.w3.org/2000/svg">
<g opacity="0.75">
<path d="M64.9069 0.894848C65.3932 1.3909 73.3496 9.59046 82.6094 19.1128L99.4267 36.4165L99.4462 35.9399C99.4656 35.6676 99.5629 29.1313 99.6699 21.3986C99.7769 13.6659 99.8936 5.79707 99.9228 3.91011L99.9909 0.486328H98.7361C98.0455 0.486328 90.06 0.379333 80.9947 0.24316C71.9295 0.106987 64.4011 -3.8147e-06 64.2746 -3.8147e-06C64.0704 -3.8147e-06 64.1579 0.126442 64.9069 0.894848Z" fill="#BC0E0E"/>
<path d="M42.38 9.0555C26.6325 10.1157 12.5775 19.3852 5.31174 33.5083C2.78282 38.43 1.23628 43.624 0.584596 49.4113C0.34143 51.5609 0.34143 56.4534 0.584596 58.603C1.63507 67.8433 5.04912 75.8581 10.9532 82.9682C12.0912 84.3397 14.9508 87.2188 16.2639 88.3082C19.357 90.8857 22.2556 92.7727 25.6891 94.4554C37.0011 100.009 50.3655 100.496 62.1251 95.788C63.9634 95.0487 66.8522 93.6092 68.5933 92.549C76.1217 87.9969 82.1522 81.3731 85.9553 73.4848C91.1202 62.7952 91.8205 50.598 87.9396 39.2859C83.4848 26.33 73.0481 15.8836 60.0727 11.4288C54.3827 9.47375 48.323 8.65671 42.38 9.0555ZM49.9668 14.5413C57.5244 15.4654 64.2649 18.2958 70.2176 23.0327C71.8809 24.3555 75.0226 27.4972 76.3454 29.1605C81.1893 35.2493 83.9808 42.0288 84.9049 49.9463C85.0994 51.6096 85.0702 56.7063 84.8562 58.4571C83.9614 65.7326 81.3352 72.2495 77.0263 77.9493C74.9545 80.6825 72.0754 83.5616 69.3617 85.6139C63.8661 89.7574 57.5438 92.3836 50.7935 93.3174C47.3795 93.794 43.4694 93.794 39.9483 93.3174C33.0229 92.3836 26.1948 89.4462 20.6409 85.0108C19.571 84.1549 17.3825 82.1804 17.3825 82.0734C17.3825 82.0345 29.9882 81.9956 45.3952 81.9956H73.408V53.9829V25.9701H45.3952C29.9882 25.9701 17.3825 25.9409 17.3825 25.9118C17.3825 25.8242 18.8026 24.4917 19.7655 23.6844C25.6891 18.646 33.2078 15.3973 40.8723 14.5511C42.9636 14.3176 42.9344 14.3176 45.8816 14.3468C47.7102 14.3662 49.1011 14.4343 49.9668 14.5413ZM17.2658 67.9989L17.2366 82.015L16.1472 80.7992C9.28994 73.2319 5.71054 64.0305 5.71054 53.9829C5.71054 43.9158 9.3483 34.5977 16.1959 27.1179L17.2366 25.9799L17.2658 39.9765C17.2755 47.68 17.2755 60.2857 17.2658 67.9989ZM40.386 27.8182C29.5116 29.9775 21.244 38.2938 19.1722 49.1682L18.9582 50.3354L18.9485 38.926L18.9388 27.5264L30.3481 27.5361L41.7477 27.5458L40.386 27.8182ZM71.842 38.926L71.8322 50.3354L71.5696 49.0223C70.4511 43.5559 68.0097 38.9649 64.2163 35.1618C60.4132 31.3684 55.8222 28.927 50.3558 27.8085L49.0427 27.5458L60.4521 27.5361L71.8517 27.5264L71.842 38.926ZM49.0914 28.7325C55.2775 29.6954 60.919 32.8566 64.9166 37.5935C67.3483 40.4823 69.2158 44.1492 70.1301 47.8064C70.7137 50.1311 70.8304 51.1816 70.8304 53.9829C70.8304 56.823 70.704 57.8541 70.1009 60.2663C69.6146 62.163 69.1963 63.3107 68.2528 65.2171C64.5664 72.7455 57.573 77.8618 49.1205 79.2332C47.8172 79.4375 44.3642 79.525 42.9052 79.3791C34.5792 78.5426 27.2745 73.7377 23.0726 66.3454C19.7266 60.4413 18.9777 52.8448 21.0884 46.2307C22.8392 40.7644 26.4283 36.0177 31.243 32.7885C34.5987 30.5416 38.3045 29.1702 42.4772 28.6352C43.8487 28.4602 47.7004 28.5185 49.0914 28.7325ZM19.6585 60.9082C22.3723 70.8489 30.4162 78.2606 40.5805 80.2059L41.7477 80.4199L30.3481 80.4296L18.9388 80.4393L18.9485 69.03L18.9582 57.6303L19.1722 58.7975C19.2987 59.4395 19.5126 60.3927 19.6585 60.9082ZM71.8517 69.0592V80.4393L60.4521 80.4296C54.1784 80.4199 49.1497 80.3907 49.2859 80.3712C54.2951 79.5153 58.3025 77.745 62.1251 74.6909C66.4631 71.2379 69.7994 66.0536 71.1708 60.6456C71.3751 59.848 71.5988 58.8462 71.6572 58.4279C71.7253 58.0194 71.7933 57.679 71.8128 57.679C71.8322 57.679 71.8517 62.7952 71.8517 69.0592Z" fill="#BC0E0E"/>
<path d="M33.7233 53.9829V65.6548H45.3952H57.0672V53.9829V42.3109H45.3952H33.7233V53.9829Z" fill="#BC0E0E"/>
</g>
</svg>
