<svg width="30" height="20" viewBox="0 0 30 20" fill="none" xmlns="http://www.w3.org/2000/svg">
<path d="M14.667 6.66699C16.889 6.66707 18.7776 7.44463 20.333 9C21.8886 10.5556 22.667 12.4448 22.667 14.667C22.667 15.4905 22.5595 16.2681 22.3457 17H6.98828C6.77463 16.268 6.66702 15.4905 6.66699 14.667C6.66699 12.4448 7.44444 10.5556 9 9C10.5556 7.44444 12.4448 6.66699 14.667 6.66699ZM4 13.333C4.37762 13.333 4.69425 13.4609 4.9502 13.7158C5.20531 13.9718 5.33301 14.2892 5.33301 14.667C5.33293 15.0446 5.20523 15.3612 4.9502 15.6162C4.69425 15.872 4.37761 16 4 16H1.33301C0.955374 15.9999 0.638827 15.8721 0.383789 15.6162C0.127863 15.3612 7.3413e-05 15.0446 0 14.667C0 14.2892 0.127799 13.9718 0.383789 13.7158C0.638827 13.4608 0.955374 13.3331 1.33301 13.333H4ZM28 13.333C28.3777 13.333 28.6941 13.4608 28.9492 13.7158C29.2052 13.9718 29.333 14.2892 29.333 14.667C29.3329 15.0446 29.2051 15.3612 28.9492 15.6162C28.6941 15.8721 28.3777 16 28 16H25.333C24.9554 15.9999 24.6388 15.8721 24.3838 15.6162C24.1279 15.3612 24.0001 15.0446 24 14.667C24 14.2892 24.1278 13.9718 24.3838 13.7158C24.6388 13.4608 24.9554 13.3331 25.333 13.333H28ZM5.2334 3.93359C5.61115 3.93361 5.92256 4.05537 6.16699 4.2998L8.06641 6.2002C8.31085 6.44464 8.43359 6.75601 8.43359 7.13379C8.4335 7.51136 8.31075 7.82206 8.06641 8.06641C7.79986 8.31074 7.48915 8.43349 7.13379 8.43359C6.77823 8.43359 6.46686 8.31085 6.2002 8.06641L4.2998 6.2002C4.03315 5.93354 3.90041 5.61115 3.90039 5.2334C3.90039 4.85562 4.03314 4.54425 4.2998 4.2998C4.54425 4.05536 4.85562 3.93359 5.2334 3.93359ZM24.083 3.90039C24.4499 3.90047 24.7667 4.03333 25.0332 4.2998C25.2776 4.54425 25.4004 4.85562 25.4004 5.2334C25.4004 5.61115 25.2776 5.92256 25.0332 6.16699L23.1338 8.06641C22.8894 8.31081 22.5779 8.43355 22.2002 8.43359C21.8224 8.43359 21.511 8.31085 21.2666 8.06641C21.0223 7.82201 20.9004 7.51641 20.9004 7.14941C20.9004 6.78326 21.0222 6.46683 21.2666 6.2002L23.1338 4.2998C23.4004 4.03335 23.7169 3.90039 24.083 3.90039ZM14.667 0C15.0446 7.3158e-05 15.3613 0.127775 15.6172 0.382812C15.8722 0.638739 15.9999 0.955374 16 1.33301V4C16 4.37778 15.8723 4.69411 15.6172 4.94922C15.3613 5.20513 15.0446 5.33293 14.667 5.33301C14.2893 5.33301 13.9729 5.20511 13.7178 4.94922C13.4618 4.69411 13.333 4.37778 13.333 4V1.33301C13.3331 0.955373 13.4618 0.638739 13.7178 0.382812C13.9729 0.127799 14.2893 0 14.667 0Z" fill="black"/>
<rect y="18" width="29" height="2" fill="black"/>
</svg>
