<svg width="27" height="27" viewBox="0 0 27 27" fill="none" xmlns="http://www.w3.org/2000/svg">
<path d="M14.1 26.3333C12.2333 26.3333 10.4835 25.9777 8.85063 25.2666C7.21774 24.5555 5.79552 23.5946 4.58397 22.384C3.37241 21.1733 2.41108 19.7511 1.69997 18.1173C0.988856 16.4835 0.633301 14.7333 0.633301 12.8666C0.633301 10.1111 1.39463 7.61106 2.9173 5.36662C4.43997 3.12217 6.47863 1.47773 9.0333 0.433284C9.34441 0.322173 9.66663 0.283062 9.99997 0.315951C10.3333 0.34884 10.6111 0.454618 10.8333 0.633284C11.0111 0.78884 11.1502 1.00573 11.2506 1.28395C11.3511 1.56217 11.4009 1.92306 11.4 2.36662C11.4444 4.12217 11.8 5.79462 12.4666 7.38395C13.1333 8.97328 14.0889 10.3897 15.3333 11.6333C16.5777 12.8768 18 13.8324 19.6 14.5C21.2 15.1675 22.8777 15.5231 24.6333 15.5666C25.1 15.5666 25.4555 15.6057 25.7 15.684C25.9444 15.7622 26.1444 15.8897 26.3 16.0666C26.4777 16.2888 26.5946 16.5777 26.6506 16.9333C26.7066 17.2888 26.6786 17.6111 26.5666 17.9C25.5444 20.4555 23.9 22.5 21.6333 24.0333C19.3666 25.5666 16.8555 26.3333 14.1 26.3333ZM17.0666 6.73328L14.9333 4.59995C14.6666 4.33328 14.5333 4.02217 14.5333 3.66662C14.5333 3.31106 14.6666 2.99995 14.9333 2.73328L17.0666 0.599951C17.3333 0.333284 17.6444 0.199951 18 0.199951C18.3555 0.199951 18.6666 0.333284 18.9333 0.599951L21.0666 2.73328C21.3333 2.99995 21.4666 3.31106 21.4666 3.66662C21.4666 4.02217 21.3333 4.33328 21.0666 4.59995L18.9333 6.73328C18.6666 6.99995 18.3555 7.13328 18 7.13328C17.6444 7.13328 17.3333 6.99995 17.0666 6.73328ZM23.7333 10.7333L22.9333 9.93328C22.6666 9.66662 22.5333 9.35551 22.5333 8.99995C22.5333 8.6444 22.6666 8.33328 22.9333 8.06662L23.7333 7.26662C24 6.99995 24.3111 6.86662 24.6666 6.86662C25.0222 6.86662 25.3333 6.99995 25.6 7.26662L26.4 8.06662C26.6666 8.33328 26.8 8.6444 26.8 8.99995C26.8 9.35551 26.6666 9.66662 26.4 9.93328L25.6 10.7333C25.3333 11 25.0222 11.1333 24.6666 11.1333C24.3111 11.1333 24 11 23.7333 10.7333Z" fill="black"/>
</svg>
