<svg width="29" height="13" viewBox="0 0 29 13" fill="none" xmlns="http://www.w3.org/2000/svg">
<path d="M14.7666 6.66699C16.9886 6.66707 18.8772 7.44463 20.4326 9C20.7515 9.31893 21.0365 9.65305 21.29 10H8.24219C8.49576 9.65299 8.78063 9.31898 9.09961 9C10.6552 7.44444 12.5444 6.66699 14.7666 6.66699ZM5.33301 3.93359C5.71076 3.93361 6.02217 4.05537 6.2666 4.2998L8.16602 6.2002C8.41046 6.44464 8.5332 6.75601 8.5332 7.13379C8.5331 7.51136 8.41036 7.82206 8.16602 8.06641C7.89947 8.31074 7.58876 8.43349 7.2334 8.43359C6.87784 8.43359 6.56647 8.31085 6.2998 8.06641L4.39941 6.2002C4.13276 5.93354 4.00002 5.61115 4 5.2334C4 4.85562 4.13275 4.54425 4.39941 4.2998C4.64386 4.05536 4.95523 3.93359 5.33301 3.93359ZM24.1826 3.90039C24.5495 3.90047 24.8663 4.03333 25.1328 4.2998C25.3773 4.54425 25.5 4.85562 25.5 5.2334C25.5 5.61115 25.3772 5.92256 25.1328 6.16699L23.2334 8.06641C22.989 8.31081 22.6775 8.43355 22.2998 8.43359C21.922 8.43359 21.6107 8.31085 21.3662 8.06641C21.1219 7.82201 21 7.51641 21 7.14941C21 6.78326 21.1219 6.46683 21.3662 6.2002L23.2334 4.2998C23.5 4.03335 23.8165 3.90039 24.1826 3.90039ZM14.7666 0C15.1442 7.3158e-05 15.4609 0.127775 15.7168 0.382812C15.9718 0.638739 16.0995 0.955374 16.0996 1.33301V4C16.0996 4.37778 15.9719 4.69411 15.7168 4.94922C15.4609 5.20513 15.1442 5.33293 14.7666 5.33301C14.3889 5.33301 14.0725 5.20511 13.8174 4.94922C13.5614 4.69411 13.4326 4.37778 13.4326 4V1.33301C13.4327 0.955373 13.5615 0.638739 13.8174 0.382812C14.0725 0.127799 14.3889 0 14.7666 0Z" fill="black"/>
<rect y="11" width="29" height="2" fill="black"/>
</svg>
