<svg width="30" height="30" viewBox="0 0 30 30" fill="none" xmlns="http://www.w3.org/2000/svg">
<path d="M14.6667 5.33333C14.2889 5.33333 13.9724 5.20533 13.7173 4.94933C13.4613 4.69422 13.3333 4.37778 13.3333 4V1.33333C13.3333 0.955556 13.4613 0.638667 13.7173 0.382667C13.9724 0.127555 14.2889 0 14.6667 0C15.0444 0 15.3613 0.127555 15.6173 0.382667C15.8724 0.638667 16 0.955556 16 1.33333V4C16 4.37778 15.8724 4.69422 15.6173 4.94933C15.3613 5.20533 15.0444 5.33333 14.6667 5.33333ZM21.2667 8.06667C21.0222 7.82222 20.9 7.51644 20.9 7.14933C20.9 6.78311 21.0222 6.46667 21.2667 6.2L23.1333 4.3C23.4 4.03333 23.7164 3.9 24.0827 3.9C24.4498 3.9 24.7667 4.03333 25.0333 4.3C25.2778 4.54444 25.4 4.85556 25.4 5.23333C25.4 5.61111 25.2778 5.92222 25.0333 6.16667L23.1333 8.06667C22.8889 8.31111 22.5778 8.43333 22.2 8.43333C21.8222 8.43333 21.5111 8.31111 21.2667 8.06667ZM25.3333 16C24.9556 16 24.6391 15.872 24.384 15.616C24.128 15.3609 24 15.0444 24 14.6667C24 14.2889 24.128 13.972 24.384 13.716C24.6391 13.4609 24.9556 13.3333 25.3333 13.3333H28C28.3778 13.3333 28.6942 13.4609 28.9493 13.716C29.2053 13.972 29.3333 14.2889 29.3333 14.6667C29.3333 15.0444 29.2053 15.3609 28.9493 15.616C28.6942 15.872 28.3778 16 28 16H25.3333ZM14.6667 29.3333C14.2889 29.3333 13.9724 29.2053 13.7173 28.9493C13.4613 28.6942 13.3333 28.3778 13.3333 28V25.3333C13.3333 24.9556 13.4613 24.6391 13.7173 24.384C13.9724 24.128 14.2889 24 14.6667 24C15.0444 24 15.3613 24.128 15.6173 24.384C15.8724 24.6391 16 24.9556 16 25.3333V28C16 28.3778 15.8724 28.6942 15.6173 28.9493C15.3613 29.2053 15.0444 29.3333 14.6667 29.3333ZM6.2 8.06667L4.3 6.2C4.03333 5.93333 3.9 5.61111 3.9 5.23333C3.9 4.85556 4.03333 4.54444 4.3 4.3C4.54444 4.05556 4.85556 3.93333 5.23333 3.93333C5.61111 3.93333 5.92222 4.05556 6.16667 4.3L8.06667 6.2C8.31111 6.44444 8.43333 6.75556 8.43333 7.13333C8.43333 7.51111 8.31111 7.82222 8.06667 8.06667C7.8 8.31111 7.48889 8.43333 7.13333 8.43333C6.77778 8.43333 6.46667 8.31111 6.2 8.06667ZM23.1333 25.0333L21.2667 23.1333C21.0222 22.8667 20.9 22.5502 20.9 22.184C20.9 21.8169 21.0222 21.5111 21.2667 21.2667C21.5111 21.0222 21.8169 20.9 22.184 20.9C22.5502 20.9 22.8667 21.0222 23.1333 21.2667L25.0333 23.1333C25.3 23.3778 25.4276 23.6889 25.416 24.0667C25.4053 24.4444 25.2778 24.7667 25.0333 25.0333C24.7667 25.3 24.4444 25.4333 24.0667 25.4333C23.6889 25.4333 23.3778 25.3 23.1333 25.0333ZM1.33333 16C0.955556 16 0.639111 15.872 0.384 15.616C0.128 15.3609 0 15.0444 0 14.6667C0 14.2889 0.128 13.972 0.384 13.716C0.639111 13.4609 0.955556 13.3333 1.33333 13.3333H4C4.37778 13.3333 4.69467 13.4609 4.95067 13.716C5.20578 13.972 5.33333 14.2889 5.33333 14.6667C5.33333 15.0444 5.20578 15.3609 4.95067 15.616C4.69467 15.872 4.37778 16 4 16H1.33333ZM4.3 25.0333C4.05556 24.7889 3.93333 24.4778 3.93333 24.1C3.93333 23.7222 4.05556 23.4111 4.3 23.1667L6.2 21.2667C6.44444 21.0222 6.75022 20.9 7.11733 20.9C7.48356 20.9 7.8 21.0222 8.06667 21.2667C8.33333 21.5333 8.46667 21.8502 8.46667 22.2173C8.46667 22.5836 8.33333 22.9 8.06667 23.1667L6.2 25.0333C5.93333 25.3 5.61111 25.4333 5.23333 25.4333C4.85556 25.4333 4.54444 25.3 4.3 25.0333ZM14.6667 22.6667C12.4444 22.6667 10.5556 21.8889 9 20.3333C7.44444 18.7778 6.66667 16.8889 6.66667 14.6667C6.66667 12.4444 7.44444 10.5556 9 9C10.5556 7.44444 12.4444 6.66667 14.6667 6.66667C16.8889 6.66667 18.7778 7.44444 20.3333 9C21.8889 10.5556 22.6667 12.4444 22.6667 14.6667C22.6667 16.8889 21.8889 18.7778 20.3333 20.3333C18.7778 21.8889 16.8889 22.6667 14.6667 22.6667ZM14.6667 20C16.1333 20 17.3889 19.4778 18.4333 18.4333C19.4778 17.3889 20 16.1333 20 14.6667C20 13.2 19.4778 11.9444 18.4333 10.9C17.3889 9.85556 16.1333 9.33333 14.6667 9.33333C13.2 9.33333 11.9444 9.85556 10.9 10.9C9.85556 11.9444 9.33333 13.2 9.33333 14.6667C9.33333 16.1333 9.85556 17.3889 10.9 18.4333C11.9444 19.4778 13.2 20 14.6667 20ZM14.6667 20C13.2 20 11.9444 19.4778 10.9 18.4333C9.85556 17.3889 9.33333 16.1333 9.33333 14.6667C9.33333 13.2 9.85556 11.9444 10.9 10.9C11.9444 9.85556 13.2 9.33333 14.6667 9.33333C16.1333 9.33333 17.3889 9.85556 18.4333 10.9C19.4778 11.9444 20 13.2 20 14.6667C20 16.1333 19.4778 17.3889 18.4333 18.4333C17.3889 19.4778 16.1333 20 14.6667 20Z" fill="black"/>
</svg>
